<svg height="512" viewBox="0 0 64 64" width="512" xmlns="http://www.w3.org/2000/svg"><g id="Flat"><g id="Flat_copy" data-name="Flat copy"><g><path d="m11 21h42a0 0 0 0 1 0 0v36a4 4 0 0 1 -4 4h-34a4 4 0 0 1 -4-4v-36a0 0 0 0 1 0 0z" fill="#f9e109"/><path d="m45 55a34 34 0 0 1 -34-34v36a4 4 0 0 0 4 4h34a4 4 0 0 0 4-4v-2z" fill="#fcbc04"/><path d="m11 13h42a4 4 0 0 1 4 4v4a0 0 0 0 1 0 0h-50a0 0 0 0 1 0 0v-4a4 4 0 0 1 4-4z" fill="#f9e109"/><path d="m20 7v6h4v-6h16v6h4v-6a4 4 0 0 0 -4-4h-16a4 4 0 0 0 -4 4z" fill="#f9e109"/><rect fill="#fcbc04" height="28" rx="2" width="6" x="29" y="25"/><rect fill="#fcbc04" height="28" rx="2" width="6" x="41" y="25"/><rect fill="#fcbc04" height="28" rx="2" width="6" x="17" y="25"/><path d="m42 9v-2a2 2 0 0 0 -2-2h-13a2 2 0 0 1 -2-2h-1a4 4 0 0 0 -4 4v6h4v-6h16v6h4v-2a2 2 0 0 1 -2-2z" fill="#fcbc04"/><path d="m12 13h-1a4 4 0 0 0 -4 4v4h50v-4h-41a4 4 0 0 1 -4-4z" fill="#fcbc04"/><g fill="#e59730"><path d="m45 25h-2a2 2 0 0 0 -2 2v.349a6 6 0 0 1 4 5.651v20a2 2 0 0 0 2-2v-24a2 2 0 0 0 -2-2z"/><path d="m33 25h-2a2 2 0 0 0 -2 2v.349a6 6 0 0 1 4 5.651v20a2 2 0 0 0 2-2v-24a2 2 0 0 0 -2-2z"/><path d="m21 25h-2a2 2 0 0 0 -2 2v.349a6 6 0 0 1 4 5.651v20a2 2 0 0 0 2-2v-24a2 2 0 0 0 -2-2z"/><path d="m31 53h2a2 2 0 0 0 .382-.039 33.789 33.789 0 0 1 -4.382-1.961 2 2 0 0 0 2 2z"/><path d="m19 53h2a2 2 0 0 0 2-2v-4.087a34.175 34.175 0 0 1 -6-6.631v10.718a2 2 0 0 0 2 2z"/><path d="m48 58h-31a1 1 0 0 1 0-2h31a1 1 0 0 1 0 2z"/></g></g></g></g></svg>