<svg height="448pt" viewBox="0 0 448 448" width="448pt" xmlns="http://www.w3.org/2000/svg"><path d="m224 0c-123.710938 0-224 100.289062-224 224s100.289062 224 224 224 224-100.289062 224-224c-.140625-123.652344-100.347656-223.859375-224-224zm77.65625 229.65625-135.769531 135.769531c-2.007813 2.078125-4.980469 2.910157-7.777344 2.179688s-4.984375-2.917969-5.714844-5.714844.101563-5.769531 2.179688-7.777344l130.113281-130.113281-130.113281-130.113281c-3.03125-3.136719-2.988281-8.128907.097656-11.214844s8.078125-3.128906 11.214844-.097656l135.769531 135.769531c3.121094 3.125 3.121094 8.1875 0 11.3125zm0 0"/></svg>