<svg height="512pt" viewBox="0 0 512 512" width="512pt" xmlns="http://www.w3.org/2000/svg"><path d="m416 512h-320c-53.023438 0-96-42.976562-96-96v-320c0-53.023438 42.976562-96 96-96h320c53.023438 0 96 42.976562 96 96v320c0 53.023438-42.976562 96-96 96zm0 0" fill="#fff9dd"/><path d="m381.761719 202.449219-69.328125-72c-2.257813-2.335938-5.730469-3.089844-8.753906-1.875-3.023438 1.21875-5.007813 4.160156-5.007813 7.425781v34.671875h-2.671875c-57.34375 0-104 46.65625-104 104v16c0 3.710937 2.609375 6.800781 6.222656 7.648437.578125.144532 1.183594.207032 1.761719.207032 3.023437 0 5.902344-1.773438 7.296875-4.558594 15.007812-30 45.152344-48.640625 78.703125-48.640625h12.671875v34.671875c0 3.265625 1.984375 6.191406 5.007812 7.425781 3.007813 1.214844 6.496094.476563 8.75-1.875l69.328126-72c3.011718-3.101562 3.011718-8 .019531-11.101562zm0 0" fill="#ffd200"/><path d="m352 384h-192c-17.648438 0-32-14.351562-32-32v-149.328125c0-17.648437 14.351562-32 32-32h32c5.886719 0 10.671875 4.769531 10.671875 10.671875 0 5.886719-4.769531 10.65625-10.671875 10.65625h-32c-5.886719 0-10.671875 4.785156-10.671875 10.671875v149.328125c0 5.886719 4.785156 10.671875 10.671875 10.671875h192c5.886719 0 10.671875-4.785156 10.671875-10.671875v-85.328125c0-5.886719 4.769531-10.671875 10.671875-10.671875 5.886719 0 10.65625 4.769531 10.65625 10.671875v85.328125c0 17.648438-14.351562 32-32 32zm0 0" fill="#ffe777"/></svg>